<?xml version="1.0" standalone="no"?>
<!DOCTYPE svg PUBLIC "-//W3C//DTD SVG 20010904//EN"
 "http://www.w3.org/TR/2001/REC-SVG-20010904/DTD/svg10.dtd">
<svg version="1.0" xmlns="http://www.w3.org/2000/svg"
 width="512.000000pt" height="512.000000pt" viewBox="0 0 512.000000 512.000000"
 preserveAspectRatio="xMidYMid meet">
<metadata>
Created by potrace 1.11, written by Peter Selinger 2001-2013
</metadata>
<g transform="translate(0.000000,512.000000) scale(0.100000,-0.100000)"
fill="#000000" stroke="none">
<path d="M2517 4944 c-1 -1 -50 -4 -109 -8 -58 -3 -126 -9 -150 -12 -78 -10
-292 -54 -343 -70 -27 -8 -57 -17 -65 -19 -57 -13 -238 -86 -356 -145 -239
-118 -423 -250 -620 -445 -223 -220 -388 -459 -512 -740 -44 -101 -120 -322
-128 -374 -3 -19 -10 -46 -16 -60 -5 -14 -9 -27 -8 -29 1 -2 -10 -71 -15 -92
-1 -3 -5 -28 -9 -55 -4 -28 -9 -64 -12 -80 -16 -102 -9 -499 10 -610 3 -16 8
-46 11 -65 125 -734 591 -1374 1255 -1724 105 -55 302 -137 393 -162 26 -8 71
-21 100 -29 28 -8 63 -17 77 -20 14 -3 36 -7 50 -10 30 -6 121 -22 170 -29
194 -31 515 -24 728 14 148 27 144 26 246 55 941 268 1622 1071 1734 2045 9
85 9 448 -1 525 -12 98 -27 190 -43 260 -2 11 -6 29 -8 40 -2 11 -9 32 -15 48
-6 15 -9 27 -6 27 2 0 -16 60 -41 133 -51 151 -167 395 -244 512 -49 75 -142
205 -165 232 -272 308 -490 482 -804 638 -117 58 -321 138 -385 151 -10 2 -33
8 -50 13 -86 28 -321 68 -456 77 -81 6 -210 10 -213 8z"/>
</g>
</svg>
